<svg width="512" height="512" viewBox="0 0 512 512" fill="none" xmlns="http://www.w3.org/2000/svg">
<g opacity="0.2" filter="url(#filter0_f_401_3)">
<path d="M88 50C88 50 48 50 48 90L47.9648 218H47.998L47.9648 466.094L424 466C464 466 464 426 464 426V218V170V122C464 122 464 82 424 82H224L192 50H88Z" fill="#408AE5"/>
</g>
<path d="M192 48H88C88 48 48 48 48 88V216H464V120C464 120 464 80 424 80H224L192 48Z" fill="url(#paint0_linear_401_3)"/>
<g opacity="0.1" filter="url(#filter1_f_401_3)">
<path d="M256 132L224 164H88C88 164 48 164 48 204V468H424C464 468 464 428 464 428V172C464 132 424 132 424 132H256Z" fill="#408AE5"/>
</g>
<path d="M256 128L224 160H88C88 160 48 160 48 200V464H424C464 464 464 424 464 424V168C464 128 424 128 424 128H256Z" fill="url(#paint1_linear_401_3)"/>
<path d="M464 418C464 418 464 458 424 458L48.0019 458.094L47.998 464.094L424 464C464 464 464 424 464 424V418Z" fill="#99C1F1"/>
<path opacity="0.3" d="M256 128L224 160H88C88 160 48 160 48 200V204C48 164 88 162 88 162H224.591L256.591 130H424C429.38 130 464 132 464 172V168C464 128 424 128 424 128H256Z" fill="white"/>
<path d="M198.866 227.997L218.547 228.144C211.35 235.341 207.091 244.594 205.622 255.022L198.131 254.875C190.053 254.581 183.737 248.559 183.884 241.216C183.884 233.725 190.494 227.997 198.866 227.997ZM257.909 341.384C259.231 344.616 268.044 362.534 268.044 362.534H242.928C242.928 362.534 251.006 345.644 252.769 341.384C254.237 338.153 256.441 338.006 257.909 341.384Z" fill="#3D89E5"/>
<path d="M330.76 272.353C329.144 278.669 322.682 283.369 314.75 283.369H307.407C306.966 283.516 306.672 283.809 306.819 284.25V362.534H293.454L267.75 309.366C270.394 306.428 272.01 302.463 272.01 298.203C272.01 291.153 267.897 284.838 261.729 282.341V275.144C261.729 272.059 259.085 269.856 256 269.856H255.707C252.622 269.856 249.979 272.5 249.979 275.584V282.341C243.222 284.544 238.229 290.859 238.229 298.497C238.229 302.903 239.991 307.016 242.782 309.953L217.813 362.681H195.929C187.557 362.681 180.947 355.925 180.947 347.553V245.622C180.947 245.622 180.947 244.741 181.094 245.622C182.269 252.672 188.438 258.106 195.929 258.253H308.875C308.729 258.253 330.319 256.344 330.76 272.353Z" fill="#3D89E5"/>
<path d="M254.971 289.831C259.525 289.831 263.343 293.65 263.196 298.35C263.196 302.903 259.378 306.722 254.678 306.575C250.125 306.575 246.453 302.756 246.453 298.203C246.453 296 247.334 293.944 248.95 292.328C250.712 290.712 252.768 289.831 254.971 289.831ZM258.35 284.984V276.172C258.35 275.144 257.909 274.263 257.028 273.822C255.706 273.088 254.09 273.528 253.356 274.85C253.062 275.291 252.915 275.731 253.062 276.319V284.838C245.718 286.013 240.578 292.916 241.753 300.406V300.553C242.34 304.078 244.25 307.309 247.187 309.366L215.903 376.488C214.728 378.838 214.875 381.775 216.49 383.978C218.84 387.356 223.393 388.237 226.771 385.887C227.946 385.153 228.828 383.978 229.415 382.803L250.125 337.859C251.446 334.922 254.971 333.6 258.056 335.069C259.231 335.656 260.259 336.684 260.846 337.859L282.143 382.363C283.906 386.034 288.312 387.503 291.984 385.741C295.656 383.978 297.125 379.572 295.362 375.9L263.343 309.072C269.218 304.372 270.246 295.706 265.546 289.831C263.784 287.481 261.287 285.866 258.35 284.984ZM278.912 220.947H278.765L286.55 207.434C286.99 206.7 286.696 205.819 286.109 205.231C285.375 204.938 284.64 205.084 284.2 205.672L275.975 219.625C263.196 213.897 248.509 213.897 235.584 219.625L227.653 205.819C227.359 205.378 226.771 204.938 226.184 204.938C225.596 204.938 225.009 205.231 224.715 205.819C224.421 206.406 224.421 206.994 224.715 207.434L232.646 220.947C219.721 228.144 211.203 240.481 209.146 254.875H302.853C300.65 240.481 291.837 228.144 278.912 220.947ZM237.2 243.125L236.612 243.712C235.878 244.447 234.85 244.888 233.821 244.888H233.968C231.765 244.888 230.003 243.125 230.003 241.069V240.922C230.003 239.894 230.443 238.866 231.178 238.131C232.5 236.516 234.996 236.222 236.612 237.544C238.521 238.866 238.668 241.362 237.2 243.125ZM277.443 244.594C275.24 244.741 273.478 242.978 273.478 240.775V240.628C273.478 239.6 273.918 238.572 274.653 237.837C276.121 236.369 278.618 236.369 280.234 237.837C280.968 238.572 281.409 239.6 281.409 240.628C281.409 242.978 279.646 244.594 277.443 244.594ZM317.246 287.188H311.078C310.784 287.334 310.49 287.628 310.49 288.069V385.741C310.49 386.181 310.784 386.475 311.225 386.475H317.687C325.178 386.475 331.2 380.306 331.2 372.963C331.2 372.963 331.053 283.222 331.2 279.844C331.346 276.319 330.465 278.816 330.171 279.55C327.968 284.25 323.121 287.334 317.54 287.334H317.246V287.188Z" fill="#3D89E5"/>
<path d="M254.971 302.903C257.567 302.903 259.671 300.799 259.671 298.203C259.671 295.607 257.567 293.503 254.971 293.503C252.376 293.503 250.271 295.607 250.271 298.203C250.271 300.799 252.376 302.903 254.971 302.903Z" fill="#3D89E5"/>
<defs>
<filter id="filter0_f_401_3" x="43.8042" y="45.8394" width="424.356" height="424.415" filterUnits="userSpaceOnUse" color-interpolation-filters="sRGB">
<feFlood flood-opacity="0" result="BackgroundImageFix"/>
<feBlend mode="normal" in="SourceGraphic" in2="BackgroundImageFix" result="shape"/>
<feGaussianBlur stdDeviation="2.08032" result="effect1_foregroundBlur_401_3"/>
</filter>
<filter id="filter1_f_401_3" x="10.4" y="94.4" width="491.2" height="411.2" filterUnits="userSpaceOnUse" color-interpolation-filters="sRGB">
<feFlood flood-opacity="0" result="BackgroundImageFix"/>
<feBlend mode="normal" in="SourceGraphic" in2="BackgroundImageFix" result="shape"/>
<feGaussianBlur stdDeviation="18.8" result="effect1_foregroundBlur_401_3"/>
</filter>
<linearGradient id="paint0_linear_401_3" x1="48" y1="132" x2="464" y2="132" gradientUnits="userSpaceOnUse">
<stop stop-color="#3584E4"/>
<stop offset="1" stop-color="#62A0EA"/>
</linearGradient>
<linearGradient id="paint1_linear_401_3" x1="152.898" y1="173.203" x2="447.309" y2="528" gradientUnits="userSpaceOnUse">
<stop stop-color="#99C1F1"/>
<stop offset="1" stop-color="#C3E5E7"/>
</linearGradient>
</defs>
</svg>
