<svg width="512" height="512" viewBox="0 0 512 512" fill="none" xmlns="http://www.w3.org/2000/svg">
<g opacity="0.2" filter="url(#filter0_f_201_13)">
<path d="M88 50C88 50 48 50 48 90L47.9648 218H47.998L47.9648 466.094L424 466C464 466 464 426 464 426V218V170V122C464 122 464 82 424 82H224L192 50H88Z" fill="#408AE5"/>
</g>
<path d="M192 48H88C88 48 48 48 48 88V216H464V120C464 120 464 80 424 80H224L192 48Z" fill="url(#paint0_linear_201_13)"/>
<g opacity="0.1" filter="url(#filter1_f_201_13)">
<path d="M256 132L224 164H88C88 164 48 164 48 204V468H424C464 468 464 428 464 428V172C464 132 424 132 424 132H256Z" fill="#408AE5"/>
</g>
<path d="M256 128L224 160H88C88 160 48 160 48 200V464H424C464 464 464 424 464 424V168C464 128 424 128 424 128H256Z" fill="url(#paint1_linear_201_13)"/>
<path d="M464 418C464 418 464 458 424 458L48.0019 458.094L47.998 464.094L424 464C464 464 464 424 464 424V418Z" fill="#99C1F1"/>
<path opacity="0.3" d="M256 128L224 160H88C88 160 48 160 48 200V204C48 164 88 162 88 162H224.591L256.591 130H424C429.38 130 464 132 464 172V168C464 128 424 128 424 128H256Z" fill="white"/>
<path d="M326.5 217.667H185.5C176.883 217.667 169.833 224.717 169.833 233.333V358.667C169.833 367.283 176.883 374.333 185.5 374.333H326.5C335.116 374.333 342.166 367.283 342.166 358.667V233.333C342.166 224.717 335.116 217.667 326.5 217.667ZM326.5 358.667H185.5V249H326.5V358.667Z" fill="#3D89E5"/>
<defs>
<filter id="filter0_f_201_13" x="43.8042" y="45.8394" width="424.356" height="424.415" filterUnits="userSpaceOnUse" color-interpolation-filters="sRGB">
<feFlood flood-opacity="0" result="BackgroundImageFix"/>
<feBlend mode="normal" in="SourceGraphic" in2="BackgroundImageFix" result="shape"/>
<feGaussianBlur stdDeviation="2.08032" result="effect1_foregroundBlur_201_13"/>
</filter>
<filter id="filter1_f_201_13" x="10.4" y="94.4" width="491.2" height="411.2" filterUnits="userSpaceOnUse" color-interpolation-filters="sRGB">
<feFlood flood-opacity="0" result="BackgroundImageFix"/>
<feBlend mode="normal" in="SourceGraphic" in2="BackgroundImageFix" result="shape"/>
<feGaussianBlur stdDeviation="18.8" result="effect1_foregroundBlur_201_13"/>
</filter>
<linearGradient id="paint0_linear_201_13" x1="48" y1="132" x2="464" y2="132" gradientUnits="userSpaceOnUse">
<stop stop-color="#3584E4"/>
<stop offset="1" stop-color="#62A0EA"/>
</linearGradient>
<linearGradient id="paint1_linear_201_13" x1="152.898" y1="173.203" x2="447.309" y2="528" gradientUnits="userSpaceOnUse">
<stop stop-color="#99C1F1"/>
<stop offset="1" stop-color="#C3E5E7"/>
</linearGradient>
</defs>
</svg>
