<svg width="512" height="512" viewBox="0 0 512 512" fill="none" xmlns="http://www.w3.org/2000/svg">
<g opacity="0.2" filter="url(#filter0_f_201_2)">
<path d="M88 50C88 50 48 50 48 90L47.9648 218H47.998L47.9648 466.094L424 466C464 466 464 426 464 426V218V170V122C464 122 464 82 424 82H224L192 50H88Z" fill="#408AE5"/>
</g>
<path d="M192 48H88C88 48 48 48 48 88V216H464V120C464 120 464 80 424 80H224L192 48Z" fill="url(#paint0_linear_201_2)"/>
<g opacity="0.1" filter="url(#filter1_f_201_2)">
<path d="M256 132L224 164H88C88 164 48 164 48 204V468H424C464 468 464 428 464 428V172C464 132 424 132 424 132H256Z" fill="#408AE5"/>
</g>
<path d="M256 128L224 160H88C88 160 48 160 48 200V464H424C464 464 464 424 464 424V168C464 128 424 128 424 128H256Z" fill="url(#paint1_linear_201_2)"/>
<path d="M464 418C464 418 464 458 424 458L48.0019 458.094L47.998 464.094L424 464C464 464 464 424 464 424V418Z" fill="#99C1F1"/>
<path opacity="0.3" d="M256 128L224 160H88C88 160 48 160 48 200V204C48 164 88 162 88 162H224.591L256.591 130H424C429.38 130 464 132 464 172V168C464 128 424 128 424 128H256Z" fill="white"/>
<g clip-path="url(#clip0_201_2)">
<path d="M348.59 296C348.364 284.005 343.386 272.59 334.75 264.263C326.113 255.935 314.525 251.375 302.53 251.585C300.258 251.585 297.83 251.742 295.48 251.977C275.74 254.875 262.58 269.053 255.295 279.942C247.853 269.053 234.615 254.875 215.032 251.977C212.682 251.742 210.332 251.585 207.982 251.585C196 251.396 184.432 255.965 175.813 264.291C167.194 272.616 162.227 284.019 162 296C162.227 307.981 167.194 319.384 175.813 327.709C184.432 336.035 196 340.604 207.982 340.415C210.332 340.415 212.682 340.258 215.188 339.945C234.928 337.125 248.088 322.947 255.452 312.058C262.893 322.947 276.053 337.125 295.715 340.023C298.143 340.258 300.415 340.415 302.843 340.415C314.785 340.541 326.292 335.944 334.861 327.626C343.429 319.307 348.363 307.94 348.59 296V296ZM212.76 324.2C211.193 324.513 209.392 324.513 207.825 324.513C200.032 324.682 192.488 321.763 186.839 316.392C181.189 311.021 177.892 303.635 177.667 295.843C177.913 288.045 181.227 280.658 186.889 275.29C192.551 269.921 200.103 267.004 207.903 267.173C209.47 267.173 211.193 267.33 212.838 267.487C231.403 270.228 242.762 288.402 246.6 295.843C242.683 303.285 231.325 321.693 212.838 324.2H212.76ZM263.833 296C267.672 288.715 279.03 270.385 297.595 267.643C299.162 267.33 300.885 267.33 302.452 267.33C306.326 267.215 310.186 267.867 313.808 269.246C317.431 270.626 320.745 272.708 323.561 275.371C326.378 278.035 328.641 281.228 330.22 284.768C331.8 288.308 332.665 292.125 332.767 296C332.521 303.799 329.207 311.185 323.545 316.554C317.883 321.922 310.331 324.839 302.53 324.67C300.963 324.67 299.24 324.513 297.673 324.357C279.187 321.615 267.75 303.285 263.912 296H263.833ZM194.978 300.622H222.708V291.535H195.057V300.622H194.978ZM305.663 300.622H314.985V291.535H305.585V282.213H296.733V291.613H287.333V300.622H296.733V309.865H305.742V300.7L305.663 300.622ZM350 257.303C350 259.653 348.277 261.298 345.848 261.298C345.317 261.319 344.787 261.234 344.289 261.048C343.792 260.861 343.336 260.577 342.95 260.212C342.563 259.848 342.253 259.409 342.038 258.923C341.823 258.437 341.707 257.913 341.697 257.382C341.697 255.188 343.577 253.308 345.848 253.308C348.277 253.308 350 255.032 350 257.303V257.303ZM342.872 257.303C342.872 259.027 344.125 260.437 346.005 260.437C347.728 260.437 348.982 259.027 348.982 257.303C348.982 255.58 347.728 254.17 346.005 254.17C344.125 254.013 342.872 255.423 342.872 257.303ZM345.222 259.34H344.438V255.267L346.005 255.188C346.71 255.188 347.102 255.267 347.415 255.423C347.728 255.58 347.885 255.893 347.885 256.285C347.885 256.755 347.572 257.068 347.023 257.147C347.415 257.303 347.572 257.617 347.728 258.165L347.963 259.183H347.023C346.867 259.027 346.867 258.635 346.71 258.165C346.553 257.773 346.397 257.617 345.848 257.617H345.457L345.3 259.34H345.222ZM345.378 256.99H345.848C346.397 256.99 346.632 256.912 346.632 256.442C346.632 256.05 346.397 255.893 345.848 255.893H345.3V256.99H345.378V256.99Z" fill="#3D89E5"/>
</g>
<defs>
<filter id="filter0_f_201_2" x="43.8042" y="45.8394" width="424.356" height="424.415" filterUnits="userSpaceOnUse" color-interpolation-filters="sRGB">
<feFlood flood-opacity="0" result="BackgroundImageFix"/>
<feBlend mode="normal" in="SourceGraphic" in2="BackgroundImageFix" result="shape"/>
<feGaussianBlur stdDeviation="2.08032" result="effect1_foregroundBlur_201_2"/>
</filter>
<filter id="filter1_f_201_2" x="10.4" y="94.4" width="491.2" height="411.2" filterUnits="userSpaceOnUse" color-interpolation-filters="sRGB">
<feFlood flood-opacity="0" result="BackgroundImageFix"/>
<feBlend mode="normal" in="SourceGraphic" in2="BackgroundImageFix" result="shape"/>
<feGaussianBlur stdDeviation="18.8" result="effect1_foregroundBlur_201_2"/>
</filter>
<linearGradient id="paint0_linear_201_2" x1="48" y1="132" x2="464" y2="132" gradientUnits="userSpaceOnUse">
<stop stop-color="#3584E4"/>
<stop offset="1" stop-color="#62A0EA"/>
</linearGradient>
<linearGradient id="paint1_linear_201_2" x1="152.898" y1="173.203" x2="447.309" y2="528" gradientUnits="userSpaceOnUse">
<stop stop-color="#99C1F1"/>
<stop offset="1" stop-color="#C3E5E7"/>
</linearGradient>
<clipPath id="clip0_201_2">
<rect width="188" height="188" fill="white" transform="translate(162 202)"/>
</clipPath>
</defs>
</svg>
