<svg width="512" height="512" viewBox="0 0 512 512" fill="none" xmlns="http://www.w3.org/2000/svg">
<g opacity="0.2" filter="url(#filter0_f_11_2)">
<path d="M88 50C88 50 48 50 48 90L47.9648 218H47.998L47.9648 466.094L424 466C464 466 464 426 464 426V218V170V122C464 122 464 82 424 82H224L192 50H88Z" fill="#408AE5"/>
</g>
<path d="M192 48H88C88 48 48 48 48 88V216H464V120C464 120 464 80 424 80H224L192 48Z" fill="url(#paint0_linear_11_2)"/>
<g opacity="0.1" filter="url(#filter1_f_11_2)">
<path d="M256 132L224 164H88C88 164 48 164 48 204V468H424C464 468 464 428 464 428V172C464 132 424 132 424 132H256Z" fill="#408AE5"/>
</g>
<path d="M256 128L224 160H88C88 160 48 160 48 200V464H424C464 464 464 424 464 424V168C464 128 424 128 424 128H256Z" fill="url(#paint1_linear_11_2)"/>
<path d="M464 418C464 418 464 458 424 458L48.0019 458.094L47.998 464.094L424 464C464 464 464 424 464 424V418Z" fill="#99C1F1"/>
<path opacity="0.3" d="M256 128L224 160H88C88 160 48 160 48 200V204C48 164 88 162 88 162H224.591L256.591 130H424C429.38 130 464 132 464 172V168C464 128 424 128 424 128H256Z" fill="white"/>
<path d="M221.846 291.31C221.846 293.268 222.003 294.835 222.395 296.167C222.786 297.107 223.335 298.36 224.04 299.77C224.353 300.083 224.431 300.553 224.431 300.945C224.431 301.493 224.118 301.963 223.413 302.512L220.123 304.705C219.653 305.018 219.183 305.175 218.791 305.175C218.243 305.175 217.773 304.862 217.225 304.392C216.52 303.608 215.893 302.825 215.345 301.963C214.875 301.102 214.326 300.083 213.778 298.908C209.705 303.687 204.613 306.115 198.425 306.115C194.038 306.115 190.591 304.862 188.006 302.355C185.5 299.848 184.168 296.48 184.168 292.25C184.168 287.942 185.735 284.417 188.868 281.597C192.08 278.933 196.31 277.523 201.636 277.523C203.438 277.523 205.083 277.68 207.198 277.993C209 278.228 211.115 278.62 213.151 279.09V275.33C213.151 271.335 212.368 268.75 210.723 266.948C209 265.303 206.258 264.598 202.263 264.598C200.383 264.598 198.503 264.833 196.623 265.225C194.665 265.695 192.785 266.243 190.983 267.027C190.121 267.34 189.416 267.575 189.181 267.653C188.79 267.81 188.555 267.81 188.32 267.81C187.615 267.81 187.223 267.34 187.223 266.243V263.658C187.223 262.875 187.301 262.248 187.615 261.857C187.85 261.465 188.32 261.152 189.025 260.917C190.905 259.82 193.02 259.037 195.605 258.41C198.262 257.706 201.002 257.363 203.751 257.392C209.94 257.392 214.483 258.802 217.381 261.622C220.28 264.442 221.69 268.75 221.69 274.468V291.31H221.846M200.696 299.3C202.42 299.3 204.143 298.987 206.023 298.36C207.903 297.733 209.548 296.558 210.958 294.992C211.82 293.973 212.446 292.877 212.916 291.623C212.916 290.37 213.308 288.882 213.308 287.08V284.965C211.741 284.417 210.175 284.417 208.451 284.025C206.838 283.848 205.218 283.743 203.595 283.712C200.07 283.712 197.563 284.417 195.84 285.827C194.116 287.237 193.333 289.195 193.333 291.78C193.333 294.287 193.881 296.167 195.213 297.342C196.466 298.673 198.268 299.3 200.696 299.3M242.526 304.862C241.768 304.891 241.013 304.729 240.333 304.392C240.098 304 239.706 303.295 239.393 302.355L227.173 262.092C226.86 260.917 226.703 260.368 226.703 259.977C226.703 259.115 227.095 258.645 227.956 258.645H233.048C234.066 258.645 234.771 258.802 235.085 259.193C235.555 259.507 235.868 260.212 236.181 261.23L244.876 295.697L253.023 261.23C253.258 260.212 253.571 259.507 254.041 259.193C254.433 258.88 255.138 258.645 256 258.645H260.308C261.248 258.645 261.953 258.802 262.345 259.193C262.736 259.507 263.128 260.212 263.363 261.23L271.666 296.167L280.596 261.23C280.91 260.212 281.301 259.507 281.615 259.193C282.085 258.88 282.711 258.645 283.651 258.645H288.508C289.37 258.645 289.84 259.115 289.84 259.977C289.84 260.212 289.761 260.525 289.683 260.917C289.683 260.917 289.526 261.543 289.37 262.092L276.758 302.355C276.445 303.452 276.131 304 275.583 304.392C275.27 304.705 274.565 304.94 273.703 304.94H269.238C268.22 304.94 267.75 304.783 267.123 304.392C266.596 303.833 266.266 303.118 266.183 302.355L258.115 268.75L250.046 302.277C249.811 303.295 249.498 304 249.106 304.392C248.461 304.748 247.727 304.911 246.991 304.862H242.526M309.501 306.272C306.916 306.272 304.018 305.958 301.433 305.332C298.848 304.705 296.811 304 295.48 303.295C294.798 302.969 294.227 302.452 293.835 301.807C293.62 301.368 293.512 300.885 293.521 300.397V297.733C293.521 296.637 293.913 296.167 294.696 296.167H295.636C295.95 296.167 296.42 296.558 296.968 296.793C298.691 297.577 300.65 298.203 302.686 298.595C304.801 298.987 306.916 299.222 308.875 299.222C312.165 299.222 314.75 298.673 316.473 297.498C318.275 296.167 319.215 294.678 319.215 292.563C319.215 291.075 318.666 289.9 317.805 288.882C316.865 287.942 315.063 287.002 312.556 286.218L304.958 283.868C301.198 282.615 298.378 280.892 296.655 278.542C294.973 276.366 294.064 273.693 294.07 270.943C294.07 268.75 294.54 266.87 295.48 265.225C296.42 263.502 297.673 262.092 299.083 260.917C300.806 259.742 302.53 258.88 304.645 258.253C306.681 257.627 308.875 257.313 311.225 257.313C312.321 257.313 313.496 257.392 314.75 257.548C315.846 257.705 316.943 257.94 318.04 258.097C319.136 258.41 320.076 258.645 321.016 258.958C321.956 259.272 322.583 259.585 323.21 259.898C323.915 260.29 324.463 260.682 324.776 261.152C325.09 261.622 325.246 262.17 325.246 262.875V265.382C325.246 266.478 324.855 267.027 324.071 267.027C323.68 267.027 322.975 266.792 322.035 266.4C319.136 265.068 315.768 264.363 312.086 264.363C309.11 264.363 306.916 264.833 305.115 265.852C303.548 266.792 302.686 268.358 302.686 270.473C302.686 271.962 303.235 273.215 304.253 274.155C305.271 275.173 307.23 276.113 309.971 277.053L317.413 279.403C321.173 280.5 323.836 282.223 325.481 284.417C327.048 286.532 327.831 288.96 327.831 291.702C327.831 293.895 327.361 295.932 326.5 297.733C325.56 299.457 324.306 301.023 322.583 302.277C321.095 303.608 319.136 304.548 316.943 305.253C314.75 305.958 312.086 306.272 309.501 306.272M319.293 331.652C302.138 344.263 277.228 351 256 351C225.841 351 198.816 339.877 178.371 321.468C176.726 319.98 178.215 318.022 180.173 319.197C202.263 331.965 229.445 339.72 257.645 339.72C276.68 339.72 297.595 335.803 316.786 327.5C319.685 326.325 322.113 329.537 319.293 331.652M326.5 323.583C324.228 320.685 311.93 322.173 306.368 322.8C304.723 323.035 304.488 321.547 305.976 320.45C315.768 313.635 331.905 315.75 333.706 317.865C335.586 320.215 333.236 336.352 324.071 344.028C322.583 345.203 321.251 344.577 321.878 343.167C323.993 337.84 328.615 326.247 326.5 323.583V323.583Z" fill="#3D89E5"/>
<defs>
<filter id="filter0_f_11_2" x="43.8042" y="45.8394" width="424.356" height="424.415" filterUnits="userSpaceOnUse" color-interpolation-filters="sRGB">
<feFlood flood-opacity="0" result="BackgroundImageFix"/>
<feBlend mode="normal" in="SourceGraphic" in2="BackgroundImageFix" result="shape"/>
<feGaussianBlur stdDeviation="2.08032" result="effect1_foregroundBlur_11_2"/>
</filter>
<filter id="filter1_f_11_2" x="10.4" y="94.4" width="491.2" height="411.2" filterUnits="userSpaceOnUse" color-interpolation-filters="sRGB">
<feFlood flood-opacity="0" result="BackgroundImageFix"/>
<feBlend mode="normal" in="SourceGraphic" in2="BackgroundImageFix" result="shape"/>
<feGaussianBlur stdDeviation="18.8" result="effect1_foregroundBlur_11_2"/>
</filter>
<linearGradient id="paint0_linear_11_2" x1="48" y1="132" x2="464" y2="132" gradientUnits="userSpaceOnUse">
<stop stop-color="#3584E4"/>
<stop offset="1" stop-color="#62A0EA"/>
</linearGradient>
<linearGradient id="paint1_linear_11_2" x1="152.898" y1="173.203" x2="447.309" y2="528" gradientUnits="userSpaceOnUse">
<stop stop-color="#99C1F1"/>
<stop offset="1" stop-color="#C3E5E7"/>
</linearGradient>
</defs>
</svg>
