<svg width="512" height="512" viewBox="0 0 512 512" fill="none" xmlns="http://www.w3.org/2000/svg">
<g opacity="0.2" filter="url(#filter0_f_3_30)">
<path d="M88 50C88 50 48 50 48 90L47.9648 218H47.998L47.9648 466.094L424 466C464 466 464 426 464 426V218V170V122C464 122 464 82 424 82H224L192 50H88Z" fill="#408AE5"/>
</g>
<path d="M192 48H88C88 48 48 48 48 88V216H464V120C464 120 464 80 424 80H224L192 48Z" fill="url(#paint0_linear_3_30)"/>
<g opacity="0.1" filter="url(#filter1_f_3_30)">
<path d="M256 132L224 164H88C88 164 48 164 48 204V468H424C464 468 464 428 464 428V172C464 132 424 132 424 132H256Z" fill="#408AE5"/>
</g>
<path d="M256 128L224 160H88C88 160 48 160 48 200V464H424C464 464 464 424 464 424V168C464 128 424 128 424 128H256Z" fill="url(#paint1_linear_3_30)"/>
<path d="M464 418C464 418 464 458 424 458L48.0019 458.094L47.998 464.094L424 464C464 464 464 424 464 424V418Z" fill="#99C1F1"/>
<path opacity="0.3" d="M256 128L224 160H88C88 160 48 160 48 200V204C48 164 88 162 88 162H224.591L256.591 130H424C429.38 130 464 132 464 172V168C464 128 424 128 424 128H256Z" fill="white"/>
<path d="M332.434 239.551L298.558 223.242C296.645 222.32 294.493 222.015 292.399 222.371C290.305 222.727 288.374 223.725 286.873 225.228L175.982 326.325C174.637 327.546 173.832 329.251 173.744 331.066C173.655 332.88 174.292 334.656 175.512 336.001C175.659 336.16 175.806 336.313 175.965 336.454L185.018 344.679C186.201 345.755 187.724 346.384 189.322 346.454C190.92 346.525 192.492 346.034 193.766 345.066L327.334 243.781C328.343 243.016 329.546 242.547 330.806 242.428C332.067 242.309 333.336 242.544 334.471 243.107C335.605 243.67 336.56 244.538 337.228 245.614C337.895 246.69 338.249 247.932 338.25 249.198V248.804C338.25 246.871 337.704 244.977 336.675 243.34C335.646 241.703 334.176 240.39 332.434 239.551V239.551Z" fill="#0065A9"/>
<path d="M332.434 368.449L298.558 384.764C296.645 385.683 294.493 385.986 292.4 385.631C290.307 385.275 288.375 384.278 286.873 382.778L175.982 281.675C174.637 280.454 173.832 278.749 173.744 276.934C173.655 275.12 174.292 273.344 175.512 271.999C175.659 271.84 175.806 271.687 175.965 271.546L185.018 263.321C186.202 262.24 187.729 261.609 189.331 261.538C190.933 261.467 192.509 261.961 193.784 262.934L327.334 364.219C328.343 364.984 329.546 365.453 330.806 365.572C332.067 365.691 333.336 365.456 334.471 364.893C335.605 364.33 336.56 363.462 337.228 362.386C337.895 361.31 338.249 360.068 338.25 358.802V359.225C338.244 361.153 337.695 363.041 336.666 364.672C335.638 366.303 334.171 367.612 332.434 368.449V368.449Z" fill="#007ACC"/>
<path d="M298.558 384.764C296.645 385.683 294.493 385.986 292.4 385.631C290.307 385.275 288.375 384.278 286.873 382.778C287.717 383.611 288.787 384.176 289.951 384.403C291.114 384.629 292.319 384.508 293.414 384.053C294.508 383.598 295.444 382.83 296.105 381.846C296.765 380.861 297.12 379.704 297.125 378.519V229.481C297.126 228.291 296.773 227.126 296.112 226.136C295.451 225.145 294.51 224.373 293.41 223.918C292.31 223.462 291.099 223.344 289.931 223.577C288.763 223.81 287.691 224.385 286.85 225.228C288.351 223.726 290.282 222.728 292.375 222.371C294.468 222.014 296.621 222.316 298.535 223.236L332.404 239.522C334.152 240.356 335.628 241.668 336.663 243.305C337.697 244.942 338.247 246.838 338.25 248.775V359.225C338.25 361.16 337.704 363.056 336.674 364.694C335.644 366.332 334.172 367.646 332.428 368.484L298.558 384.764Z" fill="#1F9CF0"/>
<defs>
<filter id="filter0_f_3_30" x="43.8042" y="45.8394" width="424.356" height="424.415" filterUnits="userSpaceOnUse" color-interpolation-filters="sRGB">
<feFlood flood-opacity="0" result="BackgroundImageFix"/>
<feBlend mode="normal" in="SourceGraphic" in2="BackgroundImageFix" result="shape"/>
<feGaussianBlur stdDeviation="2.08032" result="effect1_foregroundBlur_3_30"/>
</filter>
<filter id="filter1_f_3_30" x="10.4" y="94.4" width="491.2" height="411.2" filterUnits="userSpaceOnUse" color-interpolation-filters="sRGB">
<feFlood flood-opacity="0" result="BackgroundImageFix"/>
<feBlend mode="normal" in="SourceGraphic" in2="BackgroundImageFix" result="shape"/>
<feGaussianBlur stdDeviation="18.8" result="effect1_foregroundBlur_3_30"/>
</filter>
<linearGradient id="paint0_linear_3_30" x1="48" y1="132" x2="464" y2="132" gradientUnits="userSpaceOnUse">
<stop stop-color="#3584E4"/>
<stop offset="1" stop-color="#62A0EA"/>
</linearGradient>
<linearGradient id="paint1_linear_3_30" x1="152.898" y1="173.203" x2="447.309" y2="528" gradientUnits="userSpaceOnUse">
<stop stop-color="#99C1F1"/>
<stop offset="1" stop-color="#C3E5E7"/>
</linearGradient>
</defs>
</svg>
