<svg width="512" height="512" viewBox="0 0 512 512" fill="none" xmlns="http://www.w3.org/2000/svg">
<g opacity="0.2" filter="url(#filter0_f_105_2)">
<path d="M88 50C88 50 48 50 48 90L47.9648 218H47.998L47.9648 466.094L424 466C464 466 464 426 464 426V218V170V122C464 122 464 82 424 82H224L192 50H88Z" fill="#408AE5"/>
</g>
<path d="M192 48H88C88 48 48 48 48 88V216H464V120C464 120 464 80 424 80H224L192 48Z" fill="url(#paint0_linear_105_2)"/>
<g opacity="0.1" filter="url(#filter1_f_105_2)">
<path d="M256 132L224 164H88C88 164 48 164 48 204V468H424C464 468 464 428 464 428V172C464 132 424 132 424 132H256Z" fill="#408AE5"/>
</g>
<path d="M256 128L224 160H88C88 160 48 160 48 200V464H424C464 464 464 424 464 424V168C464 128 424 128 424 128H256Z" fill="url(#paint1_linear_105_2)"/>
<path d="M464 418C464 418 464 458 424 458L48.0019 458.094L47.998 464.094L424 464C464 464 464 424 464 424V418Z" fill="#99C1F1"/>
<path opacity="0.3" d="M256 128L224 160H88C88 160 48 160 48 200V204C48 164 88 162 88 162H224.591L256.591 130H424C429.38 130 464 132 464 172V168C464 128 424 128 424 128H256Z" fill="white"/>
<path d="M300.65 278.15C306.525 274.625 310.638 269.338 312.988 262.875C315.338 256.412 315.338 249.95 313.575 243.487C311.813 237.025 307.7 231.737 302.413 227.625C297.125 223.513 290.075 221.75 283.613 221.75H229.563C222.513 221.75 216.05 224.1 210.763 227.625C204.3 231.737 200.775 237.612 198.425 243.487C196.663 249.95 196.663 257 199.013 262.875C201.363 269.338 205.475 274.625 211.35 278.15C207.238 281.088 203.125 284.612 200.775 289.312C198.425 294.013 197.25 298.713 197.25 304C197.25 309.287 198.425 313.987 200.775 318.688C203.125 323.388 206.65 326.912 211.35 329.85C205.475 333.375 201.363 338.662 199.013 345.125C196.663 351.588 196.663 358.05 198.425 364.512C200.188 370.975 204.3 376.263 210.175 380.375C215.463 384.487 222.513 386.25 228.975 386.25C237.2 386.25 245.425 382.725 251.888 377.438C257.763 371.562 261.288 363.925 261.288 355.7V327.5C267.163 332.787 274.8 335.725 282.438 335.725H283.025C290.075 335.725 296.538 333.375 301.825 329.85C307.113 325.737 311.225 320.45 312.988 313.988C314.75 307.525 314.75 301.062 312.4 294.6C310.638 286.962 305.938 281.675 300.65 278.15V278.15ZM261.288 231.738H283.025C285.963 231.738 288.9 231.738 291.25 232.913C294.188 234.088 296.538 235.262 298.3 237.612C300.65 239.375 301.825 241.725 303 244.663C304.175 247.6 304.763 249.95 304.763 252.888C304.763 255.825 304.175 258.762 303 261.112C301.825 263.462 300.063 265.812 298.3 268.162C295.95 269.925 293.6 271.687 291.25 272.862C288.313 274.037 285.375 274.037 283.025 274.037H261.288V231.738V231.738ZM228.975 231.738H250.713V272.862H228.975C223.688 272.862 218.4 270.513 214.875 266.4C210.763 262.875 209 257.587 209 252.3C209 247.012 211.35 241.725 214.875 238.2C218.4 234.675 223.688 232.325 228.975 231.738V231.738ZM207.825 304C207.825 298.713 210.175 293.425 214.288 289.312C218.4 285.2 223.688 283.438 229.563 283.438H251.3V324.562H229.563C223.688 324.562 218.4 322.213 214.288 318.688C210.175 314.575 207.825 309.287 207.825 304V304ZM250.713 355.113C250.713 360.988 248.363 366.275 244.25 369.8C240.138 373.913 234.85 375.675 228.975 375.675C226.038 375.675 223.1 375.675 220.75 374.5C217.813 373.325 215.463 372.15 213.7 370.387C211.35 368.625 210.175 366.275 209 363.338C207.825 360.988 207.238 358.05 207.238 355.113C207.238 352.175 207.825 349.237 209 346.887C210.175 344.537 211.938 342.188 213.7 339.838C216.05 338.075 218.4 336.312 220.75 335.137C223.688 333.962 226.625 333.963 228.975 333.963H250.713V355.113V355.113ZM283.025 324.562H282.438C277.15 324.562 271.863 322.212 268.338 318.1C264.813 313.987 262.463 309.287 262.463 304C262.463 298.713 264.813 293.425 268.338 289.9C271.863 285.788 277.15 284.025 282.438 283.438H283.025C285.963 283.438 288.9 283.437 291.25 284.612C294.188 285.787 296.538 286.962 298.3 289.312C300.65 291.075 301.825 293.425 303 296.362C304.175 298.712 304.763 301.65 304.763 304.588C304.763 307.525 304.175 310.462 303 312.812C301.825 315.163 300.063 317.513 298.3 319.863C295.95 321.625 293.6 323.387 291.25 324.562H283.025V324.562Z" fill="#3D89E5"/>
<defs>
<filter id="filter0_f_105_2" x="43.8042" y="45.8394" width="424.356" height="424.415" filterUnits="userSpaceOnUse" color-interpolation-filters="sRGB">
<feFlood flood-opacity="0" result="BackgroundImageFix"/>
<feBlend mode="normal" in="SourceGraphic" in2="BackgroundImageFix" result="shape"/>
<feGaussianBlur stdDeviation="2.08032" result="effect1_foregroundBlur_105_2"/>
</filter>
<filter id="filter1_f_105_2" x="10.4" y="94.4" width="491.2" height="411.2" filterUnits="userSpaceOnUse" color-interpolation-filters="sRGB">
<feFlood flood-opacity="0" result="BackgroundImageFix"/>
<feBlend mode="normal" in="SourceGraphic" in2="BackgroundImageFix" result="shape"/>
<feGaussianBlur stdDeviation="18.8" result="effect1_foregroundBlur_105_2"/>
</filter>
<linearGradient id="paint0_linear_105_2" x1="48" y1="132" x2="464" y2="132" gradientUnits="userSpaceOnUse">
<stop stop-color="#3584E4"/>
<stop offset="1" stop-color="#62A0EA"/>
</linearGradient>
<linearGradient id="paint1_linear_105_2" x1="152.898" y1="173.203" x2="447.309" y2="528" gradientUnits="userSpaceOnUse">
<stop stop-color="#99C1F1"/>
<stop offset="1" stop-color="#C3E5E7"/>
</linearGradient>
</defs>
</svg>
