<svg width="512" height="512" viewBox="0 0 512 512" fill="none" xmlns="http://www.w3.org/2000/svg">
<g opacity="0.2" filter="url(#filter0_f_13_2)">
<path d="M88 50C88 50 48 50 48 90L47.9648 218H47.998L47.9648 466.094L424 466C464 466 464 426 464 426V218V170V122C464 122 464 82 424 82H224L192 50H88Z" fill="#408AE5"/>
</g>
<path d="M192 48H88C88 48 48 48 48 88V216H464V120C464 120 464 80 424 80H224L192 48Z" fill="url(#paint0_linear_13_2)"/>
<g opacity="0.1" filter="url(#filter1_f_13_2)">
<path d="M256 132L224 164H88C88 164 48 164 48 204V468H424C464 468 464 428 464 428V172C464 132 424 132 424 132H256Z" fill="#408AE5"/>
</g>
<path d="M256 128L224 160H88C88 160 48 160 48 200V464H424C464 464 464 424 464 424V168C464 128 424 128 424 128H256Z" fill="url(#paint1_linear_13_2)"/>
<path d="M464 418C464 418 464 458 424 458L48.0019 458.094L47.998 464.094L424 464C464 464 464 424 464 424V418Z" fill="#99C1F1"/>
<path opacity="0.3" d="M256 128L224 160H88C88 160 48 160 48 200V204C48 164 88 162 88 162H224.591L256.591 130H424C429.38 130 464 132 464 172V168C464 128 424 128 424 128H256Z" fill="white"/>
<g clip-path="url(#clip0_13_2)">
<path d="M283.182 298.462C282.455 297.734 281.591 297.157 280.641 296.763C279.69 296.368 278.671 296.165 277.643 296.165C276.614 296.165 275.595 296.367 274.644 296.76C273.693 297.154 272.829 297.731 272.102 298.458C271.374 299.185 270.796 300.049 270.402 300.999C270.008 301.95 269.805 302.968 269.805 303.997C269.804 305.026 270.007 306.045 270.4 306.996C270.794 307.946 271.37 308.81 272.098 309.538C273.566 311.008 275.559 311.834 277.637 311.835C279.715 311.836 281.708 311.011 283.178 309.542C284.648 308.073 285.474 306.081 285.475 304.003C285.475 301.925 284.651 299.932 283.182 298.462V298.462ZM288.72 281.847C289.443 281.099 290.307 280.502 291.263 280.092C292.218 279.681 293.246 279.465 294.286 279.456C295.326 279.447 296.358 279.645 297.321 280.039C298.283 280.433 299.158 281.015 299.893 281.75C300.629 282.486 301.211 283.36 301.604 284.323C301.998 285.286 302.196 286.317 302.187 287.357C302.178 288.397 301.962 289.425 301.552 290.381C301.141 291.337 300.544 292.201 299.796 292.924C298.319 294.351 296.34 295.14 294.286 295.122C292.232 295.104 290.268 294.281 288.815 292.828C287.363 291.376 286.539 289.411 286.521 287.357C286.504 285.303 287.293 283.325 288.72 281.847V281.847ZM316.411 298.462C315.688 297.714 314.824 297.117 313.868 296.706C312.912 296.296 311.885 296.08 310.844 296.071C309.804 296.062 308.773 296.26 307.81 296.654C306.848 297.048 305.973 297.629 305.237 298.365C304.502 299.1 303.92 299.975 303.526 300.938C303.133 301.9 302.934 302.932 302.943 303.972C302.952 305.012 303.168 306.04 303.579 306.995C303.99 307.951 304.586 308.816 305.335 309.538C306.812 310.965 308.791 311.755 310.844 311.737C312.898 311.719 314.863 310.895 316.315 309.443C317.768 307.99 318.592 306.026 318.609 303.972C318.627 301.918 317.838 299.939 316.411 298.462ZM288.72 315.076C289.448 314.349 290.312 313.772 291.262 313.379C292.213 312.985 293.232 312.783 294.261 312.783C295.29 312.784 296.309 312.987 297.259 313.381C298.209 313.775 299.073 314.352 299.8 315.08C300.528 315.808 301.104 316.672 301.498 317.623C301.891 318.573 302.093 319.592 302.093 320.621C302.093 321.65 301.89 322.669 301.496 323.619C301.102 324.57 300.524 325.433 299.796 326.16C298.326 327.629 296.333 328.454 294.255 328.453C292.177 328.453 290.185 327.626 288.716 326.157C287.247 324.687 286.423 322.694 286.423 320.616C286.424 318.538 287.25 316.545 288.72 315.076V315.076ZM209 311.833H193.333V296.167H209V280.5H224.667V296.167H240.333V311.833H224.667V327.5H209V311.833Z" fill="#3D89E5"/>
<path fill-rule="evenodd" clip-rule="evenodd" d="M216.833 249.167C202.291 249.167 188.344 254.944 178.06 265.227C167.777 275.51 162 289.457 162 304C162 318.543 167.777 332.49 178.06 342.773C188.344 353.056 202.291 358.833 216.833 358.833H295.167C302.367 358.833 309.498 357.415 316.15 354.659C322.803 351.904 328.848 347.865 333.94 342.773C339.031 337.681 343.07 331.636 345.826 324.984C348.582 318.331 350 311.201 350 304C350 296.799 348.582 289.669 345.826 283.016C343.07 276.363 339.031 270.319 333.94 265.227C328.848 260.135 322.803 256.096 316.15 253.341C309.498 250.585 302.367 249.167 295.167 249.167H216.833ZM295.167 264.833H216.833C206.446 264.833 196.483 268.96 189.138 276.305C181.793 283.65 177.667 293.612 177.667 304C177.667 314.388 181.793 324.35 189.138 331.695C196.483 339.04 206.446 343.167 216.833 343.167H295.167C305.554 343.167 315.517 339.04 322.862 331.695C330.207 324.35 334.333 314.388 334.333 304C334.333 293.612 330.207 283.65 322.862 276.305C315.517 268.96 305.554 264.833 295.167 264.833V264.833Z" fill="#3D89E5"/>
</g>
<defs>
<filter id="filter0_f_13_2" x="43.8042" y="45.8394" width="424.356" height="424.415" filterUnits="userSpaceOnUse" color-interpolation-filters="sRGB">
<feFlood flood-opacity="0" result="BackgroundImageFix"/>
<feBlend mode="normal" in="SourceGraphic" in2="BackgroundImageFix" result="shape"/>
<feGaussianBlur stdDeviation="2.08032" result="effect1_foregroundBlur_13_2"/>
</filter>
<filter id="filter1_f_13_2" x="10.4" y="94.4" width="491.2" height="411.2" filterUnits="userSpaceOnUse" color-interpolation-filters="sRGB">
<feFlood flood-opacity="0" result="BackgroundImageFix"/>
<feBlend mode="normal" in="SourceGraphic" in2="BackgroundImageFix" result="shape"/>
<feGaussianBlur stdDeviation="18.8" result="effect1_foregroundBlur_13_2"/>
</filter>
<linearGradient id="paint0_linear_13_2" x1="48" y1="132" x2="464" y2="132" gradientUnits="userSpaceOnUse">
<stop stop-color="#3584E4"/>
<stop offset="1" stop-color="#62A0EA"/>
</linearGradient>
<linearGradient id="paint1_linear_13_2" x1="152.898" y1="173.203" x2="447.309" y2="528" gradientUnits="userSpaceOnUse">
<stop stop-color="#99C1F1"/>
<stop offset="1" stop-color="#C3E5E7"/>
</linearGradient>
<clipPath id="clip0_13_2">
<rect width="188" height="188" fill="white" transform="translate(162 210)"/>
</clipPath>
</defs>
</svg>
