<svg width="512" height="512" viewBox="0 0 512 512" fill="none" xmlns="http://www.w3.org/2000/svg">
<g opacity="0.2" filter="url(#filter0_f_2_768)">
<path d="M88 50C88 50 48 50 48 90L47.9648 218H47.998L47.9648 466.094L424 466C464 466 464 426 464 426V218V170V122C464 122 464 82 424 82H224L192 50H88Z" fill="black"/>
</g>
<path d="M192 48H88C88 48 48 48 48 88V216H464V120C464 120 464 80 424 80H224L192 48Z" fill="url(#paint0_linear_2_768)"/>
<g opacity="0.1" filter="url(#filter1_f_2_768)">
<path d="M256 132L224 164H88C88 164 48 164 48 204V468H424C464 468 464 428 464 428V172C464 132 424 132 424 132H256Z" fill="black"/>
</g>
<path d="M256 128L224 160H88C88 160 48 160 48 200V464H424C464 464 464 424 464 424V168C464 128 424 128 424 128H256Z" fill="url(#paint1_linear_2_768)"/>
<path d="M464 418C464 418 464 458 424 458L48.0019 458.094L47.998 464.094L424 464C464 464 464 424 464 424V418Z" fill="#99C1F1"/>
<path opacity="0.3" d="M256 128L224 160H88C88 160 48 160 48 200V204C48 164 88 162 88 162H224.591L256.591 130H424C429.38 130 464 132 464 172V168C464 128 424 128 424 128H256Z" fill="white"/>
<path d="M256 241.333C269.068 241.333 276.462 244.466 279.5 245.25C283.616 241.918 294.677 233.5 306.917 233.5C309.61 241.333 309.159 250.884 306.917 257C312.792 264.833 314.75 272.667 314.75 284.417C314.75 301.552 310.967 312.477 303 319.667C295.034 326.856 286.461 330.437 275.583 331.417C280.68 335.631 279.5 346.099 279.5 351C279.5 356.684 279.5 374.5 279.5 374.5M256 241.333C242.932 241.333 235.538 244.466 232.5 245.25C228.384 241.918 217.323 233.5 205.083 233.5C202.391 241.333 202.841 250.884 205.083 257C199.208 264.833 197.25 272.667 197.25 284.417C197.25 301.552 201.034 312.477 209 319.667C216.966 326.856 225.539 330.437 236.417 331.417C231.321 335.631 232.5 346.099 232.5 351C232.5 356.684 232.5 374.5 232.5 374.5" stroke="#2F7BD9" stroke-width="16" stroke-linecap="round" stroke-linejoin="round"/>
<path d="M232.5 358.833C221.484 358.833 210.224 354.427 203.615 349.531C197.005 344.635 195.047 336.557 185.5 331.417" stroke="#2F7BD9" stroke-width="16" stroke-linecap="round" stroke-linejoin="round"/>
<defs>
<filter id="filter0_f_2_768" x="43.8042" y="45.8394" width="424.356" height="424.415" filterUnits="userSpaceOnUse" color-interpolation-filters="sRGB">
<feFlood flood-opacity="0" result="BackgroundImageFix"/>
<feBlend mode="normal" in="SourceGraphic" in2="BackgroundImageFix" result="shape"/>
<feGaussianBlur stdDeviation="2.08032" result="effect1_foregroundBlur_2_768"/>
</filter>
<filter id="filter1_f_2_768" x="10.4" y="94.4" width="491.2" height="411.2" filterUnits="userSpaceOnUse" color-interpolation-filters="sRGB">
<feFlood flood-opacity="0" result="BackgroundImageFix"/>
<feBlend mode="normal" in="SourceGraphic" in2="BackgroundImageFix" result="shape"/>
<feGaussianBlur stdDeviation="18.8" result="effect1_foregroundBlur_2_768"/>
</filter>
<linearGradient id="paint0_linear_2_768" x1="48" y1="132" x2="464" y2="132" gradientUnits="userSpaceOnUse">
<stop stop-color="#3584E4"/>
<stop offset="1" stop-color="#62A0EA"/>
</linearGradient>
<linearGradient id="paint1_linear_2_768" x1="152.898" y1="173.203" x2="447.309" y2="528" gradientUnits="userSpaceOnUse">
<stop stop-color="#99C1F1"/>
<stop offset="1" stop-color="#C3E5E7"/>
</linearGradient>
</defs>
</svg>
