<svg width="512" height="512" viewBox="0 0 512 512" fill="none" xmlns="http://www.w3.org/2000/svg">
<g opacity="0.2" filter="url(#filter0_f_13_2)">
<path d="M88 50C88 50 48 50 48 90L47.9648 218H47.998L47.9648 466.094L424 466C464 466 464 426 464 426V218V170V122C464 122 464 82 424 82H224L192 50H88Z" fill="#408AE5"/>
</g>
<path d="M192 48H88C88 48 48 48 48 88V216H464V120C464 120 464 80 424 80H224L192 48Z" fill="url(#paint0_linear_13_2)"/>
<g opacity="0.1" filter="url(#filter1_f_13_2)">
<path d="M256 132L224 164H88C88 164 48 164 48 204V468H424C464 468 464 428 464 428V172C464 132 424 132 424 132H256Z" fill="#408AE5"/>
</g>
<path d="M256 128L224 160H88C88 160 48 160 48 200V464H424C464 464 464 424 464 424V168C464 128 424 128 424 128H256Z" fill="url(#paint1_linear_13_2)"/>
<path d="M464 418C464 418 464 458 424 458L48.0019 458.094L47.998 464.094L424 464C464 464 464 424 464 424V418Z" fill="#99C1F1"/>
<path opacity="0.3" d="M256 128L224 160H88C88 160 48 160 48 200V204C48 164 88 162 88 162H224.591L256.591 130H424C429.38 130 464 132 464 172V168C464 128 424 128 424 128H256Z" fill="white"/>
<path d="M299.992 255.697V273.123C299.921 279.637 297.327 285.871 292.755 290.512C288.183 295.153 281.989 297.841 275.476 298.009H236.278C231.051 298.114 226.073 300.258 222.406 303.984C218.74 307.709 216.676 312.722 216.655 317.949V355.314C216.655 365.948 225.903 372.21 236.278 375.26C249.039 379.251 262.715 379.251 275.476 375.26C285.358 372.398 295.098 366.641 295.098 355.32V340.356H255.9V335.368H314.721C326.124 335.368 330.378 327.414 334.343 315.476C338.371 302.484 338.371 288.576 334.343 275.584C331.523 264.234 326.142 255.692 314.721 255.692L299.992 255.697ZM277.949 350.332C279.434 350.31 280.892 350.73 282.137 351.539C283.382 352.349 284.358 353.51 284.94 354.876C285.523 356.242 285.685 357.75 285.408 359.209C285.13 360.668 284.424 362.011 283.38 363.067C282.337 364.123 281.002 364.845 279.547 365.14C278.092 365.435 276.581 365.29 275.209 364.724C273.836 364.158 272.663 363.195 271.839 361.96C271.015 360.725 270.577 359.272 270.582 357.787C270.574 356.813 270.759 355.847 271.125 354.945C271.491 354.042 272.032 353.221 272.717 352.527C273.401 351.834 274.216 351.283 275.114 350.905C276.011 350.528 276.975 350.331 277.949 350.326V350.332Z" fill="#3D89E5"/>
<path d="M255.031 213.75C248.746 213.758 242.473 214.294 236.278 215.354C219.669 218.286 216.655 224.425 216.655 235.752V250.704H255.9V255.692H201.927C196.15 255.585 190.521 257.523 186.035 261.164C181.549 264.806 178.494 269.915 177.41 275.59C173.726 288.63 173.726 302.436 177.41 315.476C180.201 327.091 186.863 335.368 198.267 335.368H211.761V317.444C211.905 310.999 214.538 304.86 219.109 300.315C223.679 295.769 229.833 293.17 236.278 293.063H275.476C278.074 293.043 280.643 292.512 283.036 291.499C285.428 290.487 287.598 289.012 289.42 287.16C291.243 285.308 292.682 283.115 293.657 280.707C294.631 278.298 295.121 275.721 295.098 273.123V235.752C294.768 230.58 292.616 225.693 289.023 221.959C285.431 218.224 280.631 215.884 275.476 215.354C268.718 214.248 261.879 213.712 255.031 213.75V213.75ZM233.81 225.782C235.293 225.76 236.749 226.179 237.993 226.986C239.237 227.793 240.213 228.952 240.797 230.315C241.381 231.678 241.546 233.184 241.272 234.642C240.998 236.099 240.297 237.442 239.258 238.5C238.219 239.558 236.889 240.283 235.437 240.584C233.985 240.884 232.476 240.746 231.103 240.187C229.729 239.628 228.553 238.673 227.723 237.444C226.893 236.215 226.448 234.767 226.443 233.284C226.429 231.314 227.196 229.418 228.577 228.012C229.958 226.605 231.84 225.804 233.81 225.782V225.782Z" fill="#3D89E5"/>
<defs>
<filter id="filter0_f_13_2" x="43.8042" y="45.8394" width="424.356" height="424.415" filterUnits="userSpaceOnUse" color-interpolation-filters="sRGB">
<feFlood flood-opacity="0" result="BackgroundImageFix"/>
<feBlend mode="normal" in="SourceGraphic" in2="BackgroundImageFix" result="shape"/>
<feGaussianBlur stdDeviation="2.08032" result="effect1_foregroundBlur_13_2"/>
</filter>
<filter id="filter1_f_13_2" x="10.4" y="94.4" width="491.2" height="411.2" filterUnits="userSpaceOnUse" color-interpolation-filters="sRGB">
<feFlood flood-opacity="0" result="BackgroundImageFix"/>
<feBlend mode="normal" in="SourceGraphic" in2="BackgroundImageFix" result="shape"/>
<feGaussianBlur stdDeviation="18.8" result="effect1_foregroundBlur_13_2"/>
</filter>
<linearGradient id="paint0_linear_13_2" x1="48" y1="132" x2="464" y2="132" gradientUnits="userSpaceOnUse">
<stop stop-color="#3584E4"/>
<stop offset="1" stop-color="#62A0EA"/>
</linearGradient>
<linearGradient id="paint1_linear_13_2" x1="152.898" y1="173.203" x2="447.309" y2="528" gradientUnits="userSpaceOnUse">
<stop stop-color="#99C1F1"/>
<stop offset="1" stop-color="#C3E5E7"/>
</linearGradient>
</defs>
</svg>
