<svg width="512" height="512" viewBox="0 0 512 512" fill="none" xmlns="http://www.w3.org/2000/svg">
<g opacity="0.2" filter="url(#filter0_f_12_2)">
<path d="M88 50C88 50 48 50 48 90L47.9648 218H47.998L47.9648 466.094L424 466C464 466 464 426 464 426V218V170V122C464 122 464 82 424 82H224L192 50H88Z" fill="#408AE5"/>
</g>
<path d="M192 48H88C88 48 48 48 48 88V216H464V120C464 120 464 80 424 80H224L192 48Z" fill="url(#paint0_linear_12_2)"/>
<g opacity="0.1" filter="url(#filter1_f_12_2)">
<path d="M256 132L224 164H88C88 164 48 164 48 204V468H424C464 468 464 428 464 428V172C464 132 424 132 424 132H256Z" fill="#408AE5"/>
</g>
<path d="M256 128L224 160H88C88 160 48 160 48 200V464H424C464 464 464 424 464 424V168C464 128 424 128 424 128H256Z" fill="url(#paint1_linear_12_2)"/>
<path d="M464 418C464 418 464 458 424 458L48.0019 458.094L47.998 464.094L424 464C464 464 464 424 464 424V418Z" fill="#99C1F1"/>
<path opacity="0.3" d="M256 128L224 160H88C88 160 48 160 48 200V204C48 164 88 162 88 162H224.591L256.591 130H424C429.38 130 464 132 464 172V168C464 128 424 128 424 128H256Z" fill="white"/>
<path d="M333.55 301.65L326.5 297.733V296.167L331.983 290.683C332.767 289.9 332.767 288.333 331.983 287.55L331.2 286.767L324.15 284.417C324.15 283.633 324.15 282.85 323.367 282.85L328.067 276.583C328.85 275.8 328.85 274.233 327.283 273.45C327.283 273.45 326.5 273.45 326.5 272.667L318.667 271.1C318.667 270.317 317.883 270.317 317.883 269.533L321.017 262.483V260.133C320.233 259.35 319.45 259.35 318.667 259.35H310.833C310.833 259.35 310.833 258.567 310.05 258.567L311.617 250.733C311.617 249.167 310.833 248.383 310.05 248.383H309.267L301.433 249.95C301.433 249.167 300.65 249.167 299.867 248.383V240.55C299.867 238.983 299.083 238.2 297.517 238.2H296.733L289.683 241.333H288.9L287.333 233.5C287.333 231.933 285.767 231.15 284.983 231.933H284.2L277.933 236.633C277.15 236.633 276.367 236.633 276.367 235.85L274.017 228.8C273.233 228.017 272.45 227.233 270.883 227.233C270.883 227.233 270.1 227.233 270.1 228.017L263.833 233.5H262.267L258.35 227.233C257.567 225.667 256 225.667 254.433 225.667L253.65 226.45L249.733 233.5H248.167L242.683 228.017C241.9 227.233 240.333 227.233 239.55 228.017L238.767 228.8L236.417 235.85C235.633 235.85 234.85 235.85 234.85 236.633L228.583 231.933C227.017 231.15 225.45 231.15 224.667 232.717V233.5L223.1 241.333C223.1 241.333 222.317 241.333 221.533 242.117L214.483 238.983C213.7 238.2 212.133 238.983 211.35 239.767V248.383C211.35 249.167 210.567 249.167 210.567 249.95L202.733 248.383C201.167 247.6 200.383 248.383 200.383 249.95V250.733L201.95 258.567C201.167 258.567 201.167 259.35 200.383 259.35H192.55C190.983 259.35 190.2 260.133 190.2 261.7V262.483L193.333 269.533V271.1L185.5 272.667C183.933 272.667 183.15 274.233 183.15 275.017V275.8L187.85 282.067C187.85 282.85 187.85 283.633 187.067 283.633L180.8 286.767C180.017 287.55 179.233 288.333 179.233 289.9C179.233 289.9 179.233 290.683 180.017 290.683L185.5 296.167V297.733L179.233 301.65C177.667 302.433 177.667 304 177.667 304.783L178.45 305.567L185.5 310.267V311.833L180.017 317.317C179.233 318.1 179.233 319.667 180.017 320.45L180.8 321.233L187.85 323.583C187.85 324.367 187.85 325.15 188.633 325.15L183.933 331.417C183.15 332.2 183.15 333.767 184.717 334.55C184.717 334.55 185.5 334.55 185.5 335.333L193.333 336.9C193.333 337.683 194.117 337.683 194.117 338.467L190.983 345.517C190.2 346.3 190.983 347.867 191.767 348.65H200.383C201.167 348.65 201.167 349.433 201.95 349.433L200.383 357.267C200.383 358.833 201.167 359.617 201.95 359.617H202.733L210.567 358.05C210.567 358.833 211.35 358.833 212.133 359.617V367.45C212.133 369.017 212.917 369.8 214.483 369.8H215.267L222.317 366.667H223.1L224.667 374.5C224.667 376.067 226.233 376.85 227.017 376.067H227.8L234.067 371.367C234.85 371.367 235.633 371.367 235.633 372.15L237.983 379.2C238.767 379.983 239.55 380.767 241.117 380.767C241.117 380.767 241.9 380.767 241.9 379.983L248.167 374.5H249.733L253.65 380.767C254.433 381.55 256 382.333 256.783 381.55L257.567 380.767L261.483 374.5H263.05L268.533 379.983C269.317 380.767 270.883 380.767 271.667 379.983L272.45 379.2L274.8 372.15C275.583 372.15 276.367 372.15 276.367 371.367L282.633 376.067C283.417 376.85 284.983 376.85 285.767 375.283C285.767 375.283 285.767 374.5 286.55 374.5L288.117 366.667C288.9 366.667 288.9 365.883 289.683 365.883L296.733 369.017C297.517 369.8 299.083 369.017 299.867 368.233V359.617L301.433 358.05L309.267 359.617C310.833 359.617 311.617 358.833 311.617 358.05V357.267L310.05 349.433L311.617 347.867H319.45C321.017 347.867 321.8 347.083 321.8 345.517V344.733L318.667 337.683C318.667 336.9 319.45 336.9 319.45 336.117L327.283 334.55C328.85 334.55 329.633 332.983 328.85 332.2V331.417L324.15 325.15L324.933 323.583L331.983 321.233C332.767 320.45 333.55 319.667 333.55 318.1C333.55 318.1 333.55 317.317 332.767 317.317L326.5 311.833V310.267L332.767 306.35C334.333 305.567 334.333 304 333.55 301.65C333.55 302.433 333.55 302.433 333.55 301.65M288.9 356.483C286.55 355.7 284.983 353.35 284.983 351C285.767 348.65 288.117 347.083 290.467 347.083C292.817 347.867 294.383 350.217 294.383 352.567C294.383 355.7 292.033 357.267 288.9 356.483ZM287.333 341.6C284.983 340.817 282.633 342.383 282.633 344.733L279.5 355.7C272.45 358.833 264.617 360.4 256 360.4C247.383 360.4 239.55 358.833 231.717 354.917L229.367 343.95C228.583 341.6 227.017 340.033 224.667 340.817L215.267 343.167C213.7 341.6 212.133 339.25 210.567 337.683H257.567C258.35 337.683 258.35 337.683 258.35 336.9V320.45C258.35 319.667 258.35 319.667 257.567 319.667H244.25V309.483H259.133C260.7 309.483 266.183 309.483 268.533 317.317C269.317 319.667 270.1 327.5 271.667 329.85C272.45 332.2 276.367 337.683 280.283 337.683H304.567C303 340.033 301.433 341.6 299.083 343.95L287.333 341.6ZM222.317 356.483C219.967 357.267 217.617 355.7 216.833 352.567C216.05 350.217 217.617 347.867 220.75 347.083C223.883 346.3 225.45 347.867 226.233 351C226.233 353.35 224.667 355.7 222.317 356.483ZM204.3 284.417C205.083 286.767 204.3 289.9 201.95 290.683C199.6 291.467 196.467 290.683 195.683 288.333C194.9 285.983 195.683 282.85 198.033 282.067C201.167 281.283 203.517 282.067 204.3 284.417ZM198.817 296.95L209 293.033C211.35 292.25 212.133 289.9 211.35 287.55L209 282.85H216.833V319.667H201.167C198.817 311.833 198.033 304.783 198.817 296.95ZM242.683 293.817V282.85H262.267C263.05 282.85 269.317 283.633 269.317 288.333C269.317 292.25 264.617 293.817 260.7 293.817H242.683ZM313.183 303.217V307.133H306.917C306.133 307.133 306.133 307.133 306.133 307.917V310.267C306.133 316.533 302.217 318.1 299.083 318.1C295.95 318.1 292.817 316.533 292.033 314.967C290.467 304.783 287.333 303.217 282.633 299.3C288.117 295.383 294.383 289.9 294.383 282.85C294.383 275.017 288.9 270.317 285.767 267.967C280.283 264.833 274.8 264.05 273.233 264.05H213.7C222.317 254.65 233.283 248.383 245.817 246.033L252.867 253.867C254.433 255.433 256.783 255.433 259.133 253.867L266.967 246.033C283.417 249.167 297.517 259.35 306.133 274.233L300.65 286.767C299.867 289.117 300.65 291.467 303 292.25L313.183 296.95V303.217ZM252.867 240.55C254.433 238.983 257.567 238.983 259.133 240.55C260.7 242.117 260.7 245.25 259.133 246.817C256.783 249.167 254.433 249.167 252.083 246.817C250.517 245.25 251.3 242.9 252.867 240.55ZM306.917 284.417C307.7 282.067 310.833 281.283 313.183 282.067C315.533 282.85 316.317 285.983 315.533 288.333C314.75 290.683 311.617 291.467 309.267 290.683C306.917 289.9 306.133 286.767 306.917 284.417Z" fill="#3D89E5"/>
<defs>
<filter id="filter0_f_12_2" x="43.8042" y="45.8394" width="424.356" height="424.415" filterUnits="userSpaceOnUse" color-interpolation-filters="sRGB">
<feFlood flood-opacity="0" result="BackgroundImageFix"/>
<feBlend mode="normal" in="SourceGraphic" in2="BackgroundImageFix" result="shape"/>
<feGaussianBlur stdDeviation="2.08032" result="effect1_foregroundBlur_12_2"/>
</filter>
<filter id="filter1_f_12_2" x="10.4" y="94.4" width="491.2" height="411.2" filterUnits="userSpaceOnUse" color-interpolation-filters="sRGB">
<feFlood flood-opacity="0" result="BackgroundImageFix"/>
<feBlend mode="normal" in="SourceGraphic" in2="BackgroundImageFix" result="shape"/>
<feGaussianBlur stdDeviation="18.8" result="effect1_foregroundBlur_12_2"/>
</filter>
<linearGradient id="paint0_linear_12_2" x1="48" y1="132" x2="464" y2="132" gradientUnits="userSpaceOnUse">
<stop stop-color="#3584E4"/>
<stop offset="1" stop-color="#62A0EA"/>
</linearGradient>
<linearGradient id="paint1_linear_12_2" x1="152.898" y1="173.203" x2="447.309" y2="528" gradientUnits="userSpaceOnUse">
<stop stop-color="#99C1F1"/>
<stop offset="1" stop-color="#C3E5E7"/>
</linearGradient>
</defs>
</svg>
