<svg width="512" height="512" viewBox="0 0 512 512" fill="none" xmlns="http://www.w3.org/2000/svg">
<g opacity="0.2" filter="url(#filter0_f_3_73)">
<path d="M88 50C88 50 48 50 48 90L47.9648 218H47.998L47.9648 466.094L424 466C464 466 464 426 464 426V218V170V122C464 122 464 82 424 82H224L192 50H88Z" fill="#408AE5"/>
</g>
<path d="M192 48H88C88 48 48 48 48 88V216H464V120C464 120 464 80 424 80H224L192 48Z" fill="url(#paint0_linear_3_73)"/>
<g opacity="0.1" filter="url(#filter1_f_3_73)">
<path d="M256 132L224 164H88C88 164 48 164 48 204V468H424C464 468 464 428 464 428V172C464 132 424 132 424 132H256Z" fill="#408AE5"/>
</g>
<path d="M256 128L224 160H88C88 160 48 160 48 200V464H424C464 464 464 424 464 424V168C464 128 424 128 424 128H256Z" fill="url(#paint1_linear_3_73)"/>
<path d="M464 418C464 418 464 458 424 458L48.0019 458.094L47.998 464.094L424 464C464 464 464 424 464 424V418Z" fill="#99C1F1"/>
<path opacity="0.3" d="M256 128L224 160H88C88 160 48 160 48 200V204C48 164 88 162 88 162H224.591L256.591 130H424C429.38 130 464 132 464 172V168C464 128 424 128 424 128H256Z" fill="white"/>
<path d="M315.161 233.477C313.275 233.614 311.424 234.056 309.68 234.787H309.656C307.982 235.451 300.021 238.799 287.919 243.875L244.55 262.141C213.43 275.242 182.839 288.143 182.839 288.143L183.203 288.002C183.203 288.002 181.094 288.696 178.891 290.206C177.53 291.072 176.358 292.205 175.448 293.537C174.367 295.123 173.497 297.549 173.821 300.058C174.349 304.3 177.099 306.844 179.073 308.248C181.07 309.669 182.974 310.333 182.974 310.333H183.021L211.708 319.998C212.995 324.128 220.45 348.638 222.242 354.284C223.3 357.656 224.328 359.766 225.615 361.375C226.237 362.198 226.966 362.885 227.841 363.437C228.296 363.702 228.781 363.911 229.286 364.06L228.993 363.99C229.081 364.013 229.151 364.084 229.216 364.107C229.451 364.172 229.61 364.195 229.909 364.242C234.451 365.617 238.099 362.797 238.099 362.797L238.305 362.633L255.242 347.211L283.63 368.989L284.276 369.265C290.193 371.862 296.185 370.417 299.352 367.867C302.542 365.3 303.781 362.016 303.781 362.016L303.987 361.487L325.924 249.104C326.547 246.331 326.706 243.734 326.018 241.214C325.309 238.663 323.673 236.469 321.43 235.063C319.547 233.918 317.363 233.365 315.161 233.477V233.477ZM314.568 245.52C314.544 245.89 314.615 245.849 314.45 246.56V246.625L292.719 357.839C292.625 357.997 292.466 358.344 292.031 358.69C291.573 359.055 291.209 359.284 289.3 358.526L254.578 331.906L233.605 351.024L238.011 322.882L294.74 270.007C297.078 267.834 296.297 267.375 296.297 267.375C296.461 264.708 292.766 266.594 292.766 266.594L221.232 310.909L221.208 310.792L186.922 299.247V299.224L186.834 299.206C186.894 299.186 186.953 299.163 187.01 299.136L187.198 299.042L187.38 298.977C187.38 298.977 217.995 286.075 249.115 272.974C264.695 266.412 280.393 259.802 292.466 254.703C299.626 251.689 306.794 248.693 313.969 245.714C314.45 245.526 314.221 245.526 314.568 245.526V245.52Z" fill="#3D89E5"/>
<defs>
<filter id="filter0_f_3_73" x="43.8042" y="45.8394" width="424.356" height="424.415" filterUnits="userSpaceOnUse" color-interpolation-filters="sRGB">
<feFlood flood-opacity="0" result="BackgroundImageFix"/>
<feBlend mode="normal" in="SourceGraphic" in2="BackgroundImageFix" result="shape"/>
<feGaussianBlur stdDeviation="2.08032" result="effect1_foregroundBlur_3_73"/>
</filter>
<filter id="filter1_f_3_73" x="10.4" y="94.4" width="491.2" height="411.2" filterUnits="userSpaceOnUse" color-interpolation-filters="sRGB">
<feFlood flood-opacity="0" result="BackgroundImageFix"/>
<feBlend mode="normal" in="SourceGraphic" in2="BackgroundImageFix" result="shape"/>
<feGaussianBlur stdDeviation="18.8" result="effect1_foregroundBlur_3_73"/>
</filter>
<linearGradient id="paint0_linear_3_73" x1="48" y1="132" x2="464" y2="132" gradientUnits="userSpaceOnUse">
<stop stop-color="#3584E4"/>
<stop offset="1" stop-color="#62A0EA"/>
</linearGradient>
<linearGradient id="paint1_linear_3_73" x1="152.898" y1="173.203" x2="447.309" y2="528" gradientUnits="userSpaceOnUse">
<stop stop-color="#99C1F1"/>
<stop offset="1" stop-color="#C3E5E7"/>
</linearGradient>
</defs>
</svg>
