<svg width="512" height="512" viewBox="0 0 512 512" fill="none" xmlns="http://www.w3.org/2000/svg">
<g opacity="0.2" filter="url(#filter0_f_12_15)">
<path d="M88 50C88 50 48 50 48 90L47.9648 218H47.998L47.9648 466.094L424 466C464 466 464 426 464 426V218V170V122C464 122 464 82 424 82H224L192 50H88Z" fill="#408AE5"/>
</g>
<path d="M192 48H88C88 48 48 48 48 88V216H464V120C464 120 464 80 424 80H224L192 48Z" fill="url(#paint0_linear_12_15)"/>
<g opacity="0.1" filter="url(#filter1_f_12_15)">
<path d="M256 132L224 164H88C88 164 48 164 48 204V468H424C464 468 464 428 464 428V172C464 132 424 132 424 132H256Z" fill="#408AE5"/>
</g>
<path d="M256 128L224 160H88C88 160 48 160 48 200V464H424C464 464 464 424 464 424V168C464 128 424 128 424 128H256Z" fill="url(#paint1_linear_12_15)"/>
<path d="M464 418C464 418 464 458 424 458L48.0019 458.094L47.998 464.094L424 464C464 464 464 424 464 424V418Z" fill="#99C1F1"/>
<path opacity="0.3" d="M256 128L224 160H88C88 160 48 160 48 200V204C48 164 88 162 88 162H224.591L256.591 130H424C429.38 130 464 132 464 172V168C464 128 424 128 424 128H256Z" fill="white"/>
<path d="M256 257C250.19 257 244.511 258.723 239.68 261.951C234.849 265.178 231.084 269.766 228.861 275.134C226.638 280.501 226.056 286.408 227.189 292.106C228.323 297.804 231.121 303.038 235.229 307.146C239.337 311.254 244.571 314.052 250.269 315.186C255.967 316.319 261.874 315.737 267.241 313.514C272.609 311.291 277.197 307.526 280.424 302.695C283.652 297.864 285.375 292.185 285.375 286.375C285.375 278.584 282.28 271.113 276.771 265.604C271.262 260.095 263.791 257 256 257ZM256 304C252.514 304 249.107 302.966 246.208 301.03C243.31 299.093 241.051 296.34 239.717 293.12C238.383 289.899 238.034 286.355 238.714 282.937C239.394 279.518 241.072 276.377 243.537 273.912C246.002 271.447 249.143 269.769 252.562 269.089C255.98 268.409 259.524 268.758 262.745 270.092C265.965 271.426 268.718 273.685 270.655 276.583C272.591 279.481 273.625 282.889 273.625 286.375C273.62 291.048 271.762 295.528 268.458 298.833C265.153 302.137 260.673 303.995 256 304Z" fill="#3D89E5"/>
<path d="M256 221.75C239.733 221.75 223.83 226.574 210.304 235.612C196.778 244.649 186.236 257.495 180.011 272.524C173.786 287.554 172.157 304.091 175.33 320.046C178.504 336.001 186.338 350.657 197.841 362.16C209.343 373.662 223.999 381.496 239.954 384.67C255.909 387.843 272.447 386.214 287.476 379.989C302.505 373.764 315.351 363.222 324.388 349.696C333.426 336.17 338.25 320.268 338.25 304C338.225 282.194 329.552 261.287 314.132 245.868C298.713 230.448 277.806 221.775 256 221.75V221.75ZM220.75 364.965V356.875C220.755 352.202 222.613 347.722 225.917 344.417C229.222 341.113 233.702 339.255 238.375 339.25H273.625C278.298 339.255 282.778 341.113 286.083 344.417C289.387 347.722 291.245 352.202 291.25 356.875V364.965C280.553 371.211 268.388 374.503 256 374.503C243.613 374.503 231.447 371.211 220.75 364.965V364.965ZM302.953 356.44C302.836 348.734 299.696 341.383 294.211 335.969C288.725 330.556 281.332 327.515 273.625 327.5H238.375C230.668 327.515 223.275 330.556 217.79 335.969C212.304 341.383 209.164 348.734 209.047 356.44C198.393 346.927 190.88 334.402 187.502 320.524C184.125 306.646 185.042 292.07 190.133 278.725C195.224 265.38 204.248 253.896 216.011 245.794C227.774 237.692 241.72 233.353 256.003 233.353C270.286 233.353 284.232 237.692 295.995 245.794C307.757 253.896 316.782 265.38 321.873 278.725C326.964 292.07 327.881 306.646 324.504 320.524C321.126 334.402 313.613 346.927 302.959 356.44H302.953Z" fill="#3D89E5"/>
<defs>
<filter id="filter0_f_12_15" x="43.8042" y="45.8394" width="424.356" height="424.415" filterUnits="userSpaceOnUse" color-interpolation-filters="sRGB">
<feFlood flood-opacity="0" result="BackgroundImageFix"/>
<feBlend mode="normal" in="SourceGraphic" in2="BackgroundImageFix" result="shape"/>
<feGaussianBlur stdDeviation="2.08032" result="effect1_foregroundBlur_12_15"/>
</filter>
<filter id="filter1_f_12_15" x="10.4" y="94.4" width="491.2" height="411.2" filterUnits="userSpaceOnUse" color-interpolation-filters="sRGB">
<feFlood flood-opacity="0" result="BackgroundImageFix"/>
<feBlend mode="normal" in="SourceGraphic" in2="BackgroundImageFix" result="shape"/>
<feGaussianBlur stdDeviation="18.8" result="effect1_foregroundBlur_12_15"/>
</filter>
<linearGradient id="paint0_linear_12_15" x1="48" y1="132" x2="464" y2="132" gradientUnits="userSpaceOnUse">
<stop stop-color="#3584E4"/>
<stop offset="1" stop-color="#62A0EA"/>
</linearGradient>
<linearGradient id="paint1_linear_12_15" x1="152.898" y1="173.203" x2="447.309" y2="528" gradientUnits="userSpaceOnUse">
<stop stop-color="#99C1F1"/>
<stop offset="1" stop-color="#C3E5E7"/>
</linearGradient>
</defs>
</svg>
