<svg width="512" height="512" viewBox="0 0 512 512" fill="none" xmlns="http://www.w3.org/2000/svg">
<g opacity="0.2" filter="url(#filter0_f_101_2)">
<path d="M88 50C88 50 48 50 48 90L47.9648 218H47.998L47.9648 466.094L424 466C464 466 464 426 464 426V218V170V122C464 122 464 82 424 82H224L192 50H88Z" fill="#408AE5"/>
</g>
<path d="M192 48H88C88 48 48 48 48 88V216H464V120C464 120 464 80 424 80H224L192 48Z" fill="url(#paint0_linear_101_2)"/>
<g opacity="0.1" filter="url(#filter1_f_101_2)">
<path d="M256 132L224 164H88C88 164 48 164 48 204V468H424C464 468 464 428 464 428V172C464 132 424 132 424 132H256Z" fill="#408AE5"/>
</g>
<path d="M256 128L224 160H88C88 160 48 160 48 200V464H424C464 464 464 424 464 424V168C464 128 424 128 424 128H256Z" fill="url(#paint1_linear_101_2)"/>
<path d="M464 418C464 418 464 458 424 458L48.0019 458.094L47.998 464.094L424 464C464 464 464 424 464 424V418Z" fill="#99C1F1"/>
<path opacity="0.3" d="M256 128L224 160H88C88 160 48 160 48 200V204C48 164 88 162 88 162H224.591L256.591 130H424C429.38 130 464 132 464 172V168C464 128 424 128 424 128H256Z" fill="white"/>
<g clip-path="url(#clip0_101_2)">
<path d="M256 206C255.489 206.021 254.988 206.146 254.527 206.368L178.998 239.48C176.922 240.804 176.037 242.323 176.084 244.9L182.602 325.411C182.672 326.25 182.97 326.704 183.604 327.37L211.522 348.622C211.522 348.622 211.64 364.406 215.086 370.602C217.687 375.278 229.774 394.259 256 394C282.226 393.742 295.073 378.098 298.958 370.281C302.64 362.87 302.561 347.47 302.561 347.47L328.059 327.511C328.394 327.291 328.67 326.991 328.862 326.638C329.053 326.286 329.154 325.891 329.155 325.49L335.892 244.728C336.096 242.284 335.085 240.263 333.009 239.362L257.418 206.368C256.977 206.144 256.494 206.018 256 206V206ZM255.6 214.444C256.023 214.46 256.446 214.601 257.073 214.883L315.173 241.744L257.034 275.717C256.133 276.171 255.734 276.101 254.966 275.717L197.391 242.315C196.506 241.736 196.451 241.336 197.391 240.772L254.057 214.813C254.543 214.592 255.067 214.467 255.6 214.444V214.444ZM255.679 219.834L208.256 241.963L255.585 269.301L303.11 242.041L255.679 219.834ZM255.679 222.771L296.663 242.041L271.11 256.298L262.964 251.935L276.782 234.639L260.034 241.203L268.839 230.283L243.365 240.827L251.981 231.819L244.32 228.294L255.679 222.771ZM241.289 229.422L247.43 232.461L230.863 248.895L259.18 237.208L249.42 248.974L266.943 241.673L258.044 252.789L267.695 258.006L255.475 264.938L215.149 241.861L241.289 229.422ZM187.004 259.987C187.231 259.987 187.568 260.144 188.061 260.41L245.088 296.264L245.221 357.505L191.539 317.891C190.936 317.32 190.725 317.124 190.733 316.38L186.659 260.473C186.659 260.136 186.777 259.987 187.004 259.987V259.987ZM324.808 260.661C325.043 260.661 325.137 260.818 325.145 261.147L321.267 316.192C321.267 316.944 321.064 317.132 320.46 317.703L266.857 357.505L267.194 296.365L323.743 261.084C324.064 260.869 324.427 260.725 324.808 260.661V260.661ZM318.502 285.775L317.116 286.762L316.074 290.224L315.69 287.757L313.92 288.932L315.055 293.616L313.301 300.783L315.126 299.256L315.792 295.128L316.293 298.363L318.471 296.922L316.943 291.579L318.502 285.775ZM195.44 287.725C194.5 287.639 193.952 288.72 194.117 290.624C194.336 293.185 195.762 296.264 197.313 297.493L200.595 300.078C202.161 301.316 203.242 300.219 203 297.627C202.765 295.042 201.308 291.955 199.757 290.741L196.49 288.211C196.193 287.953 195.829 287.784 195.44 287.725V287.725ZM196.028 289.566C196.281 289.606 196.517 289.718 196.709 289.887L199.819 292.316C200.83 293.107 201.778 295.12 201.934 296.781C202.091 298.465 201.386 299.162 200.375 298.363L197.242 295.895C196.239 295.104 195.315 293.122 195.174 291.462C195.064 290.224 195.409 289.511 196.028 289.566V289.566ZM312.141 290.373C312.141 290.099 311.562 290.451 311.241 290.686C309.987 291.65 308.436 295.065 308.327 299.052C308.209 303.408 309.188 303.901 310.387 303.079C311.656 302.217 313.379 299.225 313.442 295.042C313.497 291.838 312.141 291.195 312.141 290.373V290.373ZM306.556 290.898C306.556 290.898 303.117 292.386 303.11 293.209C303.031 298.3 302.561 308.625 302.561 308.625L305.162 306.658C305.162 306.658 307.739 304.951 307.778 300.235C307.802 297.211 306.791 297.807 306.791 297.807C306.791 297.807 307.606 296.099 307.622 293.78C307.661 290.295 306.556 290.898 306.556 290.898ZM311.272 292.574C312.173 292.574 312.008 294.673 311.993 296.068C311.977 297.439 311.303 300.58 310.583 301.105C309.854 301.637 309.799 299.201 309.815 297.791C309.838 296.436 310.395 292.574 311.272 292.574ZM305.632 293.162C305.632 293.162 306.259 292.77 306.204 294.838C306.154 295.733 305.919 296.607 305.514 297.407L304.465 298.112L304.512 293.898L305.632 293.162ZM301.621 293.326L299.827 294.423L299.357 308.86C299.357 308.86 299.248 310.301 299.639 310.599C300.203 311.037 301.731 309.243 301.731 309.243L301.7 307.598C301.7 307.598 301.112 307.739 301.136 307.144L301.621 293.326ZM203.125 293.42L204.002 302.789L205.099 303.658L204.386 295.919L207.997 298.762C208.605 299.364 208.985 300.159 209.07 301.011C209.149 301.857 208.812 302.217 208.303 301.817L205.201 299.366L208.937 306.698L210.543 307.974L208.036 303.141L208.53 303.533C209.603 304.371 210.332 303.635 210.159 301.864C209.987 300.102 208.984 297.979 207.911 297.149L203.125 293.42ZM305.342 299.53C305.342 299.53 306.125 299.342 306.047 301.716C305.984 303.729 305.342 304.363 305.342 304.363L304.151 305.225L304.253 300.368L305.342 299.53ZM297.9 300.893C297.571 300.799 297.101 300.94 296.42 301.496C295.582 302.045 294.031 304.473 294.031 304.473L294.093 305.961C294.093 305.961 294.986 304.857 295.433 304.496C297.164 302.773 296.725 305.201 296.725 305.201L296.686 305.977L295.464 307.121C295.464 307.121 293.655 308.899 293.561 312.275C293.514 313.889 294.093 315.017 294.971 314.351C295.832 313.708 296.906 311.766 296.906 311.766L296.937 312.894L298.425 311.562L298.527 303.572C298.527 303.572 298.864 301.167 297.9 300.893V300.893ZM214.052 301.88C213.778 301.661 213.535 301.669 213.426 301.911L210.809 308.178L212.118 309.22L214.256 303.964L216.246 309.369L213.269 307.019L214.092 309.212L217.115 311.617L217.922 313.81L219.254 314.86L214.773 302.969C214.628 302.551 214.38 302.177 214.052 301.88V301.88ZM292.809 304.622L291.399 305.656L291.32 314.1C291.32 314.1 290.553 315.588 290.224 315.8C289.66 316.168 289.675 314.962 289.675 314.962L289.793 306.972L288.289 308.108L288.171 316.098C288.171 316.098 288.085 319.677 289.597 318.549C290.383 317.868 290.982 316.997 291.336 316.019L291.469 317.022L292.676 316.16L292.809 304.622ZM286.495 305.483L285.21 306.329L284.693 310.16L284.09 310.544V310.724L282.9 311.468C282.43 312.197 282.132 314.445 282.132 314.445L282.148 312.189L280.777 313.16L280.463 324.777L282.014 323.657L282.351 316.787C282.351 316.787 282.602 315.134 283.119 314.272L283.957 313.599L284.09 311.178L284.106 312.392L284.623 311.954L284.56 319.356C284.56 319.356 284.443 321.816 285.735 320.954C286.182 320.649 287.404 319.153 287.404 319.153L287.333 317.641C287.333 317.641 286.738 318.197 286.55 318.314C286.26 318.495 286.268 317.86 286.268 317.86L286.432 310.693L287.294 310.089L287.271 308.209L286.519 308.679L286.495 305.483ZM219.512 306.58C218.541 306.486 217.969 307.598 218.173 309.588C218.447 312.244 219.99 315.447 221.619 316.74L225.137 319.505L225.622 318.33L221.518 315.079C220.468 314.241 219.457 312.181 219.277 310.458C219.097 308.742 219.826 308.029 220.867 308.844L224.181 311.452L224.667 310.277L220.617 307.081C220.303 306.814 219.92 306.64 219.512 306.58V306.58ZM296.671 307.927V310.724C296.671 310.724 295.832 311.711 295.449 311.938C295.073 312.165 294.979 311.507 294.979 310.928C295.004 310.077 295.332 309.263 295.903 308.632L296.671 307.927ZM279.234 309.267C278.709 309.643 278.27 310.74 278.262 311.719C278.262 312.698 278.677 313.184 279.202 312.815C279.735 312.439 280.181 311.343 280.189 310.356C280.189 309.377 279.766 308.883 279.234 309.267V309.267ZM225.285 310.747L226.225 319.521C226.286 320.05 226.526 320.542 226.907 320.915L232.179 325.082L232.664 323.892L227.291 319.638L226.429 311.633L225.285 310.747ZM277.643 311.601L275.975 312.823C275.975 312.823 275.803 315.729 274.549 326.062C273.515 318.385 273.515 314.703 273.515 314.703L271.588 315.98L272.779 330.104L275.638 328.474L277.643 311.601ZM279.672 313.936L278.129 315.04L277.643 326.829L279.187 325.717L279.672 313.936ZM233.369 317.429C232.375 317.327 231.818 318.471 232.046 320.5C232.351 323.21 233.957 326.492 235.625 327.816L239.229 330.668L239.73 329.461L235.492 326.124C234.599 325.419 233.73 323.853 233.354 322.325L238.336 326.242L238.821 325.043L233.15 320.578C233.228 319.435 233.886 319.043 234.772 319.74L238.187 322.427L238.673 321.236L234.49 317.962C234.172 317.685 233.785 317.5 233.369 317.429ZM239.393 322.027C239.291 322.129 239.237 322.356 239.276 322.662C239.353 323.288 239.643 323.869 240.098 324.307C240.474 324.605 240.725 324.354 240.647 323.735C240.567 323.105 240.278 322.519 239.824 322.074C239.636 321.933 239.495 321.918 239.393 322.027ZM239.511 322.278C239.589 322.2 239.714 322.2 239.863 322.309C240.161 322.544 240.443 323.124 240.49 323.602C240.553 324.095 240.365 324.291 240.059 324.056C239.965 323.978 239.942 323.782 239.863 323.657L239.91 323.688L239.863 323.218L239.981 323.296L240.177 323.907L240.349 324.041L240.114 323.383H240.145C240.208 323.367 240.216 323.281 240.208 323.234V323.132C240.184 322.966 240.116 322.809 240.012 322.678C239.954 322.602 239.886 322.536 239.808 322.482L239.628 322.325L239.746 323.398C239.628 323.163 239.456 323.007 239.432 322.772C239.393 322.521 239.432 322.356 239.511 322.278V322.278ZM239.793 322.646L239.84 322.678C239.918 322.74 239.942 322.764 239.981 322.811C240.02 322.873 240.047 322.942 240.059 323.014C240.059 323.061 240.075 323.093 240.059 323.116C240.043 323.163 239.989 323.132 239.942 323.101L239.84 323.022L239.793 322.646Z" fill="#3D89E5"/>
</g>
<defs>
<filter id="filter0_f_101_2" x="43.8042" y="45.8394" width="424.356" height="424.415" filterUnits="userSpaceOnUse" color-interpolation-filters="sRGB">
<feFlood flood-opacity="0" result="BackgroundImageFix"/>
<feBlend mode="normal" in="SourceGraphic" in2="BackgroundImageFix" result="shape"/>
<feGaussianBlur stdDeviation="2.08032" result="effect1_foregroundBlur_101_2"/>
</filter>
<filter id="filter1_f_101_2" x="10.4" y="94.4" width="491.2" height="411.2" filterUnits="userSpaceOnUse" color-interpolation-filters="sRGB">
<feFlood flood-opacity="0" result="BackgroundImageFix"/>
<feBlend mode="normal" in="SourceGraphic" in2="BackgroundImageFix" result="shape"/>
<feGaussianBlur stdDeviation="18.8" result="effect1_foregroundBlur_101_2"/>
</filter>
<linearGradient id="paint0_linear_101_2" x1="48" y1="132" x2="464" y2="132" gradientUnits="userSpaceOnUse">
<stop stop-color="#3584E4"/>
<stop offset="1" stop-color="#62A0EA"/>
</linearGradient>
<linearGradient id="paint1_linear_101_2" x1="152.898" y1="173.203" x2="447.309" y2="528" gradientUnits="userSpaceOnUse">
<stop stop-color="#99C1F1"/>
<stop offset="1" stop-color="#C3E5E7"/>
</linearGradient>
<clipPath id="clip0_101_2">
<rect width="188" height="188" fill="white" transform="translate(162 206)"/>
</clipPath>
</defs>
</svg>
